# xmcd
#
# Track frame offsets: 
#        150
#        25735
#        47400
#        78825
#        106050
#        129750
#        161025
#        182775
#        216525
#
# Disc length: 3155 seconds
#
# Revision: 2
# Processed by: cddbd v1.5.2PL0 Copyright (c) Steve Scherf et al.
# Submitted via: ExactAudioCopyFreeDBPlugin 1.0
#
DISCID=6a0c5109
DTITLE=Orquesta Libre and Rolly - Rock Opera
DYEAR=2016
DGENRE=JPop
TTITLE0=Willkommen
TTITLE1=Just a Gigolo
TTITLE2=Pinball Wizard
TTITLE3=The Acid Queen
TTITLE4=Sylvia
TTITLE5=Sciwncw Fiction, Double Feature
TTITLE6=Fiddle About
TTITLE7=Mr. Peachum's Morning Hymn
TTITLE8=A Gay Gaballero
EXTD=YEAR: 2016
EXTT0=
EXTT1=
EXTT2=
EXTT3=
EXTT4=
EXTT5=
EXTT6=
EXTT7=
EXTT8=
PLAYORDER=
